<svg width="266" height="290" viewBox="0 0 266 290" fill="none" xmlns="http://www.w3.org/2000/svg">
<path fill-rule="evenodd" clip-rule="evenodd" d="M96.0753 30.431C94.1778 32.2339 92.5292 35.7811 90.9637 41.4284C87.8222 52.7606 88.4349 68.3507 92.6613 84.6179C93.736 88.7536 94.337 89.946 101.818 102.77C112.411 120.933 119.154 130.127 126.562 136.511C127.991 137.742 129.39 139.148 129.672 139.637C129.954 140.126 132.571 142.159 135.487 144.155C138.404 146.151 140.757 147.907 140.717 148.056C140.595 148.511 131.822 144.458 131.419 143.76C131.211 143.401 130.288 142.771 129.368 142.359C124.051 139.984 114.608 129.993 109.774 121.627L107.324 117.387L106.639 119.641C106.263 120.88 106.094 123.664 106.265 125.827C106.542 129.332 106.846 130.225 109.053 134.025C111.969 139.046 119.428 146.985 125.489 151.521C130.48 155.255 141.997 165.306 141.569 165.553C139.22 166.909 120.229 152.894 113.826 145.08C111.131 141.791 110.973 141.74 105.966 142.551C100.469 143.442 81.4461 139.123 68.2762 133.994C64.5841 132.556 61.4864 131.246 61.3928 131.084C61.2988 130.921 59.8097 130.151 58.0832 129.373C53.9041 127.488 45.0797 121.573 40.6619 117.695C36.6406 114.166 36.4037 114.228 35.4378 119.055C34.7197 122.645 35.2385 127.5 36.6869 130.737C39.4143 136.834 51.0754 145.679 60.9522 149.142C62.4523 149.668 67.733 151.245 72.6878 152.648C77.6419 154.05 81.5737 155.268 81.425 155.354C81.1019 155.541 76.2204 155.698 72.939 155.627C69.5861 155.555 60.2983 153.104 56.1298 151.191C52.8803 149.7 49.7713 147.697 44.1493 143.472C42.2855 142.072 42.0771 142.041 41.7891 143.121C41.5462 144.03 42.0615 145.322 44.0012 148.673C46.3626 152.752 46.7436 153.166 49.7794 154.96C51.5667 156.016 53.7438 157.179 54.6174 157.544C55.4911 157.91 57.4723 158.819 59.0199 159.565C64.9812 162.437 68.9862 163.78 79.1864 166.327C84.9931 167.777 89.6968 169.138 89.6393 169.352C89.5136 169.82 81.8365 170.085 78.9487 169.72C73.082 168.979 64.4073 166.241 59.7859 163.67C58.1292 162.748 56.6305 162.077 56.4556 162.178C55.8271 162.54 56.8512 166.005 58.357 168.608C60.1475 171.703 68.073 178.837 72.0157 180.902C76.46 183.23 86.3242 185.363 94.5519 185.775C104.677 186.282 111.189 187.084 110.596 187.752C110.338 188.044 109.537 188.322 108.815 188.372C108.095 188.422 104.851 188.701 101.606 188.992C98.3624 189.283 94.3987 189.418 92.7981 189.292C91.1977 189.166 89.7625 189.136 89.6086 189.225C88.7706 189.709 95.477 194.593 98.1458 195.442C98.6317 195.597 100.128 196.215 101.47 196.817C102.813 197.418 104.581 197.887 105.399 197.861C106.217 197.834 106.978 197.972 107.09 198.166C107.345 198.608 112.864 199.221 116.228 199.182C123.738 199.095 127.451 198.573 131.689 197.01C134.162 196.097 136.285 195.376 136.405 195.406C137.337 195.641 128.218 211.079 124.291 215.915C123.583 216.787 122.467 218.352 121.811 219.392C121.156 220.433 119.056 223.214 117.145 225.573C115.235 227.932 113.195 230.517 112.611 231.317C108.439 237.048 107.552 238.221 106.683 239.152C105.609 240.304 101.759 246.204 101.643 246.877C101.603 247.109 100.995 248.381 100.293 249.703C98.3708 253.323 98.7289 257.618 101.171 260.228C101.959 261.07 103.044 262.51 103.582 263.427C104.863 265.612 106.82 266.467 109.856 266.169C114.056 265.757 114.826 264.98 115.083 260.897C115.208 258.919 115.856 255.18 116.523 252.587C117.993 246.879 122.971 236.857 125.519 234.475C126.537 233.523 128.505 231.609 129.892 230.222C131.279 228.834 132.93 227.498 133.561 227.251C134.238 226.987 133.313 228.208 131.305 230.233C125.99 235.587 123.682 240.266 119.92 253.301C118.701 257.526 117.387 262.038 116.999 263.327C116.182 266.049 116.825 267.508 119.766 269.61C121.379 270.762 122.495 270.997 125.616 270.837C130.088 270.609 133.578 269.639 135.269 268.153C136.318 267.232 136.362 266.548 135.644 262.418C135.034 258.918 135.053 256.525 135.716 252.988C137.024 246.014 141.792 233.829 144.444 230.682C145.099 229.906 146.435 228.018 147.415 226.487C149.816 222.733 150.167 223.079 147.946 227.012C143.054 235.676 139.496 247.828 139.019 257.502C138.975 258.398 138.874 259.963 138.794 260.98C138.274 267.565 141.811 271.17 148.297 270.666C150.632 270.485 151.894 269.964 156.751 267.176C162.404 263.932 162.486 263.861 165.09 259.99C167.163 256.908 168.121 254.585 169.619 249.004C171.343 242.586 171.481 241.188 171.101 233.994C170.706 226.506 170.153 223.698 166.627 211.285C165.88 208.655 165.429 209.042 171.69 206.93C177.309 205.034 186.056 200.449 190.32 197.164C194.106 194.247 197.843 190.115 198.705 187.894C198.915 187.353 199.576 186.161 200.174 185.247C200.772 184.332 201.527 182.651 201.853 181.512C202.178 180.373 202.853 178.253 203.352 176.799C204.691 172.902 205.297 168.704 206.029 158.243C206.422 152.621 207.156 147.575 207.858 145.655C209.393 141.46 212.796 136.604 215.651 134.537C216.907 133.628 218.918 132.178 220.118 131.314C221.32 130.451 222.356 129.545 222.422 129.301C222.6 128.639 220.785 128.696 219.56 129.392C218.97 129.728 217.855 129.771 217.082 129.489C211.658 127.506 208.409 126.982 205.649 127.643C199.563 129.102 192.266 134.583 185.46 142.809C183.754 144.872 182.235 146.527 182.086 146.487C181.937 146.447 181.192 144.357 180.431 141.842C176.399 128.522 169.635 114.31 162.676 104.537C158.377 98.4998 148.846 89.0209 141.7 83.6774C135.936 79.367 130.778 73.5326 127.099 67.161C123.19 60.3903 119.362 49.586 118.04 41.5879C117.476 38.1786 116.788 35.2677 116.512 35.1192C115.679 34.6718 113.981 38.2841 112.861 42.8852C111.829 47.1276 111.929 51.9894 113.19 58.9358L113.72 61.8545L118.923 66.6985C130.302 77.293 136.208 84.7814 144.608 99.2614C150.359 109.177 151.264 111.017 152.853 116.013C153.834 119.101 154.971 122.641 155.379 123.881C156.164 126.264 157.012 132.159 156.552 132.036C156.403 131.996 155.94 130.191 155.523 128.024C154.456 122.48 150.847 114.355 144.915 104.146C137.84 91.9702 132.361 84.797 123.505 76.1177C112.858 65.6842 110.093 62.2269 105.543 53.6621C103.451 49.7253 101.171 44.6967 100.476 42.4883C99.3028 38.7606 98.2337 32.2352 98.539 30.6675C98.7044 29.8217 98.0718 28.669 97.6305 29.0105C97.4499 29.1508 96.7501 29.7896 96.0753 30.431ZM209.739 130.267C210.463 130.535 210.709 130.945 210.741 131.941C210.789 133.476 209.137 134.374 207.683 133.604C205.701 132.554 207.598 129.476 209.739 130.267Z" fill="url(#paint0_linear)"/>
<defs>
<linearGradient id="paint0_linear" x1="73.936" y1="42.687" x2="256.067" y2="358.147" gradientUnits="userSpaceOnUse">
<stop offset="0.17341" stop-color="#F25D27"/>
<stop offset="0.739884" stop-color="#024295"/>
</linearGradient>
</defs>
</svg>
